<svg xmlns="http://www.w3.org/2000/svg" width="840" height="480" viewBox="0 0 840.00001 480.00001" id="svg4200"><g id="layer1" transform="translate(0,-572.36216)"><rect style="opacity:1;fill:#832d73;fill-opacity:1;stroke:none;stroke-width:2;stroke-miterlimit:4;stroke-dasharray:2,2;stroke-dashoffset:0;stroke-opacity:1" id="rect4750" width="840" height="480" x="0" y="572.36218"/><g id="g5740" transform="translate(0,-15.000023)"><g id="g5709"><g id="g4798" transform="translate(-10,49.000033)"><path id="rect4771" d="m350 682.36218h180v209.99996H350c-11.08.0-20-8.92-20-20V662.36216c0 10.99997 9 20.00002 20 20.00002z" style="opacity:1;fill:#58b65c;fill-opacity:1;stroke:none;stroke-width:2;stroke-miterlimit:4;stroke-dasharray:2,2;stroke-dashoffset:0;stroke-opacity:1"/><path id="rect4774" transform="translate(0,572.36216)" d="m350 62c-11.08.0-20 8.92-20 20v8c0 11.08 8.92 20 20 20h160v-10H352v-4h158v-8H352v-4h158v-8H352v-4h158V62z" style="opacity:1;fill:#f6f3e7;fill-opacity:1;stroke:none;stroke-width:2;stroke-miterlimit:4;stroke-dasharray:2,2;stroke-dashoffset:0;stroke-opacity:1"/></g><g id="g5615" transform="matrix(0.26878103,0,0,0.26891881,274.30722,631.86221)"><g transform="matrix(1.25,0,0,-1.25,170,369.99996)" id="g4911"><path id="path4913" style="fill:#58b65c;fill-opacity:1;fill-rule:nonzero;stroke:none" d="m0 0v-297.48756h47.64l-.01758-50.57289h101.19762L147.64-396.434h50v-50h1e2v446.434z"/></g><g id="g5687"><g id="g4915" transform="matrix(1.25,0,0,-1.25,170,740.52658)"><path d="M.00014802161-1.0662648.0-301.52877h297.64007l-7e-5 151.71873h-98.22115v50.572881h-50.59881v47.598009H47.622423v50.5728852z" style="fill:#dcdd6d;fill-opacity:1;fill-rule:nonzero;stroke:none" id="path4917"/></g><g id="g4919" transform="matrix(1.25,0,0,-1.25,170,865.5422)"><path d="m.14584363e-4.77533715V-228.29008H297.64l7e-5 26.77388h-50.59881v101.14577h-98.22122v50.572882H98.221232v50.57288515z" style="fill:#a6d16e;fill-opacity:1;fill-rule:nonzero;stroke:none" id="path4921"/></g></g><g transform="matrix(1.25,0,0,-1.25,229.54987,553.04233)" id="g4929"/><g transform="matrix(1.25,0,0,-1.25,542.04988,369.99996)" id="g4941"><path id="path4943" style="fill:#58b65c;fill-opacity:1;fill-rule:nonzero;stroke:none" d="m0 0v-446.23134l1e2-.20266v50h48.82048l-58e-5 48.37355h101.19733l58e-5 50.57289H297.64V0z"/></g><g id="g5693" transform="matrix(-1,0,0,1,1084.1002,0)"><g transform="matrix(1.25,0,0,-1.25,170,740.52658)" id="g5695"><path id="path5697" style="fill:#dcdd6d;fill-opacity:1;fill-rule:nonzero;stroke:none" d="M.00014802161-1.0662648.0-300.77042l297.64007-1.5167-7e-5 152.47708h-98.22113v50.572881h-50.59883v47.598009H47.622423v50.5728852z"/></g><g transform="matrix(1.25,0,0,-1.25,170,865.5422)" id="g5699"><path id="path5701" style="fill:#a6d16e;fill-opacity:1;fill-rule:nonzero;stroke:none" d="m.14584363e-4.77533715V-228.29008H297.64l7e-5 26.77388h-50.59881v101.14577h-98.22122v50.572882H98.221232v50.57288515z"/></g></g></g><g id="g5664"><path style="fill:#f57e1f;fill-opacity:1;fill-rule:evenodd;stroke:none;stroke-width:2.97563791px;stroke-linecap:butt;stroke-linejoin:miter;stroke-opacity:1" d="m229.52796 552.2111v126.43222h63.24851V615.4272h63.24851v-63.2161z" id="path5651" transform="matrix(0.26878103,0,0,0.26891881,274.30722,631.86221)"/><path d="m356.02505 678.64331h-63.24851V615.4272h63.24851z" style="fill:#753732;fill-opacity:1;fill-rule:nonzero;stroke:none" id="path4939" transform="matrix(0.26878103,0,0,0.26891881,274.30722,631.86221)"/><path id="path5649" d="m336 747.36216h17v17h33v33h-16v-17h-34z" style="fill:#5c9446;fill-opacity:1;fill-rule:evenodd;stroke:none;stroke-width:1px;stroke-linecap:butt;stroke-linejoin:miter;stroke-opacity:1"/></g><g id="g5669" transform="matrix(-1,0,0,1,840,-0.10000403)"><path transform="matrix(0.26878103,0,0,0.26891881,274.30722,631.86221)" id="path5671" d="m229.52796 552.2111v126.43222h63.24851V615.4272h63.24851v-63.2161z" style="fill:#f57e1f;fill-opacity:1;fill-rule:evenodd;stroke:none;stroke-width:2.97563791px;stroke-linecap:butt;stroke-linejoin:miter;stroke-opacity:1"/><path transform="matrix(0.26878103,0,0,0.26891881,274.30722,631.86221)" id="path5673" style="fill:#753732;fill-opacity:1;fill-rule:nonzero;stroke:none" d="m356.02505 678.64331h-63.24851V615.4272h63.24851z"/><path style="fill:#5c9446;fill-opacity:1;fill-rule:evenodd;stroke:none;stroke-width:1px;stroke-linecap:butt;stroke-linejoin:miter;stroke-opacity:1" d="m336 747.36216h17v17h33v33h-16v-17h-34z" id="path5675"/></g><rect style="opacity:1;fill:#965d4b;fill-opacity:1;stroke:none;stroke-width:2;stroke-miterlimit:4;stroke-dasharray:2,2;stroke-dashoffset:0;stroke-opacity:1" id="rect5677" width="66" height="16" x="387" y="831.36218"/><rect style="opacity:1;fill:#965d4b;fill-opacity:1;stroke:none;stroke-width:2;stroke-miterlimit:4;stroke-dasharray:2,2;stroke-dashoffset:0;stroke-opacity:1" id="rect5679" width="34" height="18" x="403" y="846.36218"/></g><text id="text5703" y="999.20593" x="335.28955" style="font-style:normal;font-weight:400;font-size:12.5px;line-height:125%;font-family:sans-serif;letter-spacing:0;word-spacing:0;fill:#f7f3e6;fill-opacity:1;stroke:none;stroke-width:1px;stroke-linecap:butt;stroke-linejoin:miter;stroke-opacity:1"><tspan style="font-style:normal;font-variant:normal;font-weight:400;font-stretch:normal;font-size:31.25px;font-family:kelson sans bg;-inkscape-font-specification:'Kelson Sans BG';fill:#f7f3e6;fill-opacity:1" y="999.20593" x="335.28955" id="tspan5705">Книгозавър</tspan></text></g><g id="g5785"><rect y="744.36212" x="306" height="14" width="14" id="rect5774" style="opacity:1;fill:#f282b4;fill-opacity:1;stroke:none;stroke-width:2;stroke-miterlimit:4;stroke-dasharray:2,2;stroke-dashoffset:0;stroke-opacity:1"/><rect style="opacity:1;fill:#d38bbc;fill-opacity:1;stroke:none;stroke-width:2;stroke-miterlimit:4;stroke-dasharray:2,2;stroke-dashoffset:0;stroke-opacity:1" id="rect5776" width="14" height="14" x="306" y="758.36212"/><rect y="744.36212" x="292" height="28.000023" width="14" id="rect5778" style="opacity:1;fill:#55b85d;fill-opacity:1;stroke:none;stroke-width:2;stroke-miterlimit:4;stroke-dasharray:2,2;stroke-dashoffset:0;stroke-opacity:1"/><rect style="opacity:1;fill:#60974d;fill-opacity:1;stroke:none;stroke-width:2;stroke-miterlimit:4;stroke-dasharray:2,2;stroke-dashoffset:0;stroke-opacity:1" id="rect5783" width="14" height="14.000092" x="292" y="730.36212"/><rect y="772.36212" x="306" height="14" width="14" id="rect5801" style="opacity:1;fill:#58b65c;fill-opacity:1;stroke:none;stroke-width:2;stroke-miterlimit:4;stroke-dasharray:2,2;stroke-dashoffset:0;stroke-opacity:1"/><rect style="opacity:1;fill:#58b65c;fill-opacity:1;stroke:none;stroke-width:2;stroke-miterlimit:4;stroke-dasharray:2,2;stroke-dashoffset:0;stroke-opacity:1" id="rect5803" width="14" height="14" x="520" y="772.36212"/></g><g id="g5791" transform="matrix(-1,0,0,1,840,0)"><rect style="opacity:1;fill:#f282b4;fill-opacity:1;stroke:none;stroke-width:2;stroke-miterlimit:4;stroke-dasharray:2,2;stroke-dashoffset:0;stroke-opacity:1" id="rect5793" width="14" height="14" x="306" y="744.36212"/><rect y="758.36212" x="306" height="14" width="14" id="rect5795" style="opacity:1;fill:#d38bbc;fill-opacity:1;stroke:none;stroke-width:2;stroke-miterlimit:4;stroke-dasharray:2,2;stroke-dashoffset:0;stroke-opacity:1"/><rect style="opacity:1;fill:#55b85d;fill-opacity:1;stroke:none;stroke-width:2;stroke-miterlimit:4;stroke-dasharray:2,2;stroke-dashoffset:0;stroke-opacity:1" id="rect5797" width="14" height="28.000023" x="292" y="744.36212"/><rect y="730.36212" x="292" height="14.000092" width="14" id="rect5799" style="opacity:1;fill:#60974d;fill-opacity:1;stroke:none;stroke-width:2;stroke-miterlimit:4;stroke-dasharray:2,2;stroke-dashoffset:0;stroke-opacity:1"/></g></g></svg>